HIERARCHY
ROOT hip
{
	OFFSET 0.000000 0.000000 0.000000 
	CHANNELS 6 Xposition Yposition Zposition Xrotation Zrotation Yrotation
	JOINT abdomen
	{
		OFFSET 0.000000 3.402643 0.000000 
		CHANNELS 3 Xrotation Zrotation Yrotation
		JOINT chest
		{
			OFFSET 0.000000 8.438565 -0.680529 
			CHANNELS 3 Xrotation Zrotation Yrotation
			JOINT neck
			{
				OFFSET 0.000000 10.207942 -0.272212 
				CHANNELS 3 Xrotation Zrotation Yrotation
				JOINT head
				{
					OFFSET 0.000000 3.130431 0.000000 
					CHANNELS 3 Xrotation Zrotation Yrotation
					End Site
					{
						OFFSET 0.000000 3.130435 0.000000 
					}
				}
			}
			JOINT lCollar
			{
				OFFSET 3.470700 6.669187 -0.816635 
				CHANNELS 3 Yrotation Zrotation Xrotation
				JOINT lShldr
				{
					OFFSET 3.198488 0.000000 0.000000 
					CHANNELS 3 Zrotation Yrotation Xrotation
					JOINT lForeArm
					{
						OFFSET 10.139888 0.000000 0.000000 
						CHANNELS 3 Yrotation Zrotation Xrotation
						JOINT lHand
						{
							OFFSET 8.370511 0.000000 0.000000 
							CHANNELS 3 Zrotation Yrotation Xrotation
							End Site
							{
								OFFSET 4.083176 0.000000 0.000000 
							}
						}
					}
				}
			}
			JOINT rCollar
			{
				OFFSET -3.470700 6.669187 -0.816635 
				CHANNELS 3 Yrotation Zrotation Xrotation
				JOINT rShldr
				{
					OFFSET -3.198488 0.000000 0.000000 
					CHANNELS 3 Zrotation Yrotation Xrotation
					JOINT rForeArm
					{
						OFFSET -10.139888 0.000000 0.000000 
						CHANNELS 3 Yrotation Zrotation Xrotation
						JOINT rHand
						{
							OFFSET -8.370511 0.000000 0.000000 
							CHANNELS 3 Zrotation Yrotation Xrotation
							End Site
							{
								OFFSET -4.083176 0.000000 0.000000 
							}
						}
					}
				}
			}
		}
	}
	JOINT lThigh
	{
		OFFSET 5.308129 -1.633274 1.361059 
		CHANNELS 3 Xrotation Zrotation Yrotation
		JOINT lShin
		{
			OFFSET -2.041588 -20.007561 0.000000 
			CHANNELS 3 Xrotation Zrotation Yrotation
			JOINT lFoot
			{
				OFFSET 0.000000 -19.190928 -1.224953 
				CHANNELS 3 Xrotation Yrotation Zrotation
				End Site
				{
					OFFSET 0.000000 -2.449906 4.627600 
				}
			}
		}
	}
	JOINT rThigh
	{
		OFFSET -5.308129 -1.633274 1.361059 
		CHANNELS 3 Xrotation Zrotation Yrotation
		JOINT rShin
		{
			OFFSET 2.041588 -20.007561 0.000000 
			CHANNELS 3 Xrotation Zrotation Yrotation
			JOINT rFoot
			{
				OFFSET 0.000000 -19.190928 -1.224953 
				CHANNELS 3 Xrotation Yrotation Zrotation
				End Site
				{
					OFFSET 0.000000 -2.449906 4.627600 
				}
			}
		}
	}
}
MOTION
Frames: 20
Frame Time: 0.033333
1.441909 80.004639 4.727796 -24.785156 0.029297 -10.205076 10.370376 -8.712459 -6.345483 46.845703 4.023438 11.416016 5.994270 -4.750058 -11.242452 -23.740236 -1.298828 -12.236330 2.000000 -2.000000 0.000000 -5.429681 -123.027351 -113.494514 2.775396 -1.190267 2.442042 11.997441 46.949425 139.434845 -2.000000 2.000000 0.000000 21.679703 114.765617 -79.991135 -2.452718 1.025140 2.422113 -8.666914 -39.033669 93.725182 -77.300652 57.435314 -13.860175 12.723226 -3.971360 -1.975025 31.725832 -1.548370 0.762754 -71.738754 -80.035637 13.138566 4.647169 4.010905 1.203188 37.615517 -2.512265 -13.603053 
1.494133 77.448639 4.909892 -22.441406 -1.503906 -9.785413 10.370376 -8.712459 -6.345483 47.011723 5.146484 11.973533 1.034456 -3.698945 -8.887488 -22.812500 -1.191406 -9.687501 2.000000 -2.000000 0.000000 -9.785156 -117.373047 -105.614143 1.896098 -1.044636 2.423465 14.159833 38.128822 169.542145 -2.000000 2.000000 0.000000 33.164066 111.679688 -76.104210 -2.482025 1.034887 2.422700 -10.400498 -35.768265 96.713150 -76.225792 57.302399 -13.113714 11.907453 -3.903275 4.735531 32.476601 -2.271431 -3.997702 -80.793663 -73.826874 43.258251 31.314262 3.235197 -14.750274 41.680679 2.116611 0.353079 
1.477145 74.562813 5.070088 -22.626951 -3.964844 -9.102237 10.370376 -8.712459 -6.345483 47.197269 6.552734 12.364394 -1.794174 -3.473115 -8.565827 -17.138672 -0.693359 -9.394650 2.000000 -2.000000 0.000000 -11.074218 -115.703133 -103.241219 2.706781 -1.161611 2.430531 14.347033 33.824181 168.784286 -2.000000 2.000000 0.000000 24.804707 112.832024 -79.053497 -2.599256 1.073879 2.425049 -5.127844 -35.426746 81.517357 -70.730003 57.127373 -8.992950 18.666739 -3.788029 3.045934 32.992203 -1.518424 -3.080138 -64.071487 -60.779716 40.718937 60.316101 1.522059 -24.508104 38.644356 5.799748 8.690485 
1.532642 70.993019 4.686016 -17.626953 -2.783203 -9.453599 10.370376 -8.712459 -6.345483 42.900394 7.031250 11.876195 -7.157833 -4.443369 -10.240269 -12.578125 -1.943359 -10.918301 2.000000 -2.000000 0.000000 -12.187497 -117.480469 -102.205925 2.560227 -1.103123 2.426998 0.248812 46.022984 116.071854 -2.000000 2.000000 0.000000 17.822287 115.400391 -80.684540 -2.442952 1.025140 2.422113 1.873067 -43.165710 90.132660 -71.913033 53.724400 -7.379437 39.382191 -3.007548 1.753510 29.321943 -1.312827 -5.887793 -57.125134 -44.853065 36.876671 84.486153 -0.198492 -26.442463 34.237621 10.700662 22.406912 
1.532012 67.387367 4.794493 -13.798828 0.273438 -11.279249 10.370376 -8.712459 -6.345483 33.447266 5.703125 10.371094 -7.484236 -4.895935 -10.894383 -9.599609 -1.992187 -11.787110 2.000000 -2.000000 0.000000 2.480479 -116.669914 -116.551697 2.423453 -1.054383 2.424054 3.628176 36.661411 118.925529 -2.000000 2.000000 0.000000 -2.421871 114.580078 -90.743073 -2.550417 1.064131 2.424461 17.503956 -33.518383 67.437958 -68.025558 49.783764 -0.047602 65.233269 -1.431389 4.976495 20.637823 0.057902 -3.291459 -52.768723 -31.562103 29.639318 101.888382 -1.477654 -25.747969 23.928682 11.668574 33.449436 
1.233388 63.470123 4.964003 -9.462890 2.695313 -10.067900 10.370376 -8.712459 -6.345483 24.062498 5.771485 9.306642 -7.913587 -4.836038 -10.557034 -5.273438 0.791016 -12.460938 2.000000 -2.000000 0.000000 32.334007 -122.373047 -110.799271 2.423453 -1.054383 2.424054 -16.479692 9.070406 92.074211 -2.000000 2.000000 0.000000 -41.972656 115.644531 -111.318359 -2.960748 1.210350 2.433268 28.225014 -0.886891 44.838875 -60.483730 42.397701 10.636098 85.614632 0.040883 6.474241 11.428330 0.923647 2.341261 -45.488617 -22.928186 18.326166 104.276344 -1.611389 -20.633463 16.857599 9.393871 39.529373 
0.947346 59.921349 6.184680 -9.638673 4.121094 -13.076171 10.370376 -8.712459 -6.345483 19.208988 4.189453 8.653057 -8.170742 -4.564184 -9.658210 -3.349610 -0.722656 -10.966799 2.000000 -2.000000 0.000000 -100.898438 -40.996098 76.292419 -35.041000 -0.724811 2.697575 -8.739572 -4.310068 43.869736 -2.000000 2.000000 0.000000 107.392578 48.261719 62.526817 27.728397 0.856828 2.617375 7.069497 14.198594 24.074459 -37.870003 34.118008 27.347542 90.771698 0.390872 4.451370 10.477825 1.944460 6.190604 -33.179821 -21.023766 9.007079 84.413849 -0.156221 -15.182368 11.777452 4.430138 30.611498 
0.576110 55.756329 7.879030 -7.714845 4.082031 -17.099611 10.370376 -8.712459 -6.345483 12.958984 5.156250 8.028221 -8.563278 -3.890444 -8.186982 -0.615235 -5.761718 -7.705080 2.000000 -2.000000 0.000000 -72.529297 -5.507813 80.048828 -86.155342 -0.692968 3.546852 26.041988 1.588132 28.752302 -2.000000 2.000000 0.000000 92.187500 24.228516 69.779396 73.181900 0.638923 3.308708 -25.942102 4.939860 18.254168 -20.916994 22.337170 33.597332 74.372261 -0.867052 -4.137568 12.271530 3.046353 4.587325 -19.947178 -19.371469 0.947820 49.984615 2.265736 -16.271889 15.486712 3.850640 24.654457 
0.226392 51.209240 9.421364 -5.029297 2.539063 -17.109377 10.370376 -8.712459 -6.345483 7.988284 8.427735 7.403775 -8.845322 -3.268591 -7.133584 2.802734 -4.531250 -6.884766 2.000000 -2.000000 0.000000 -66.708984 21.787107 81.165733 -113.245338 -0.870414 4.007728 34.553032 -3.342971 52.253448 -2.000000 2.000000 0.000000 82.705078 -1.904297 77.050453 112.717537 0.917965 4.030031 -42.765224 4.580634 40.208313 -10.107416 11.738180 26.455647 42.572895 -2.923103 -6.949340 15.821491 2.352251 4.504119 -4.900692 -14.690598 -4.911484 16.993439 3.706233 -15.281633 14.920157 0.527756 8.023852 
0.171901 44.818802 10.288170 -3.427734 4.511718 -17.734377 10.370376 -8.712459 -6.345483 3.173829 7.412109 6.788370 -9.053700 -3.272915 -6.964533 1.660156 -1.113281 -7.685574 2.000000 -2.000000 0.000000 -69.101563 27.724611 60.439457 -120.967018 -0.959580 4.150102 28.645033 -7.702180 59.393993 -2.000000 2.000000 0.000000 80.371094 -18.105469 72.350479 131.433167 1.127907 4.277735 -41.877174 11.896229 57.553741 -12.447085 8.568896 17.225447 47.767723 -2.637788 -2.086091 -29.889608 -0.326205 -5.485751 -23.093285 -14.207590 0.107434 52.963959 2.127196 -15.528058 -24.899565 -3.029203 12.683840 
-0.121061 39.274410 9.948772 -5.761718 3.007812 -25.175268 10.370376 -8.712459 -6.345483 7.001955 4.863282 7.412938 -9.031018 -1.663009 -3.225527 -4.902344 0.419922 -4.023438 2.000000 -2.000000 0.000000 -67.607422 18.564453 10.605467 -114.416451 -1.014848 4.045871 22.947018 0.616064 25.191648 -2.000000 2.000000 0.000000 75.585930 -13.720703 46.425785 123.486008 1.085110 4.177312 -32.544178 4.520759 36.660431 -22.582773 11.157454 15.499681 73.966492 -0.836683 5.613629 -42.287731 4.383111 -10.982727 -35.863918 -14.021965 4.267701 77.057083 0.458035 -13.260801 -35.218170 -0.693745 15.819057 
-0.057762 36.021122 8.752005 -2.978516 1.875000 -22.675781 10.370376 -8.712459 -6.345483 7.705078 6.796876 7.403499 -9.009928 -1.638065 -3.387307 -6.308594 -0.644531 -3.750000 2.000000 -2.000000 0.000000 -60.234371 0.742188 -6.835824 -77.935829 -0.692091 3.400078 10.176745 1.047319 9.669023 -2.000000 2.000000 0.000000 71.826172 -8.740234 9.500469 99.812164 0.834128 3.799963 -7.333227 -2.489244 10.537848 -34.478951 10.858012 7.622458 87.091736 0.168182 13.740377 -45.008888 5.967237 -17.358488 -44.922516 -10.418773 4.132997 88.233803 -0.412953 -16.940170 -37.734070 -2.541383 18.459332 
-0.099794 34.210369 8.053071 -1.845703 0.478516 -17.099586 10.370376 -8.712459 -6.345483 8.476564 10.068359 7.404050 -8.844971 -3.158012 -7.120535 -6.474611 -2.490234 -7.226564 2.000000 -2.000000 0.000000 -50.566406 -17.568359 -12.666015 -48.532772 -0.732529 2.893787 0.545812 1.628272 -1.695648 -2.000000 2.000000 0.000000 70.878906 -11.962891 -11.964914 90.040352 0.756467 3.628831 -3.014429 -3.173408 -6.842948 -40.955055 10.419700 2.142433 93.801315 0.646159 17.246443 -45.715160 5.135522 -20.833483 -48.210503 -8.700730 3.627386 93.838898 -0.853683 -23.427938 -37.411819 -4.024158 23.718367 
-0.320270 33.808426 7.656918 0.966797 -0.068359 -15.664063 10.370376 -8.712459 -6.345483 6.025393 11.406251 6.964822 -8.949670 -3.158989 -7.258610 -9.160158 -0.302734 -8.164071 2.000000 -2.000000 0.000000 -41.601563 -24.345701 -22.933712 -26.273474 -0.925652 2.611897 3.771774 -9.920421 12.290764 -2.000000 2.000000 0.000000 66.191406 -13.261719 -21.611326 78.326248 0.681752 3.409115 4.145891 2.235452 0.437085 -45.527451 11.774665 0.960497 95.441620 0.782634 16.387871 -45.705982 5.060574 -20.398733 -51.422012 -7.226147 2.672093 94.856499 -0.931085 -25.378036 -36.896919 -4.230172 24.649832 
-0.032845 34.372074 7.802518 -3.564453 1.572266 -15.243871 10.370376 -8.712459 -6.345483 9.677735 8.115235 7.618566 -8.780684 -3.166192 -6.911430 -12.089846 1.308594 -8.613282 2.000000 -2.000000 0.000000 -38.408203 -27.656248 -25.756487 -15.669874 -1.018675 2.529488 -0.586348 -18.712431 26.772820 -2.000000 2.000000 0.000000 60.732422 -13.818360 -25.637098 67.558998 0.644830 3.211143 4.723859 2.486165 6.721046 -40.403351 7.683989 1.946510 92.977425 0.614955 19.028255 -43.779419 4.899526 -21.255260 -47.014416 -10.077237 4.577528 93.611961 -0.830641 -24.538292 -36.561378 -4.129400 24.452320 
0.043038 35.188293 7.619040 -1.425781 1.562500 -14.980203 10.370376 -8.712459 -6.345483 7.197266 8.613282 7.267088 -8.957242 -2.526356 -5.545242 -10.664064 0.996094 -6.826172 2.000000 -2.000000 0.000000 -37.197266 -23.994141 -26.673891 -17.915751 -1.018087 2.539233 0.728091 -10.715534 13.468527 -2.000000 2.000000 0.000000 55.898438 -12.402344 -24.777487 59.759224 0.662840 3.075294 2.608083 1.216889 -2.632032 -41.694164 8.455843 1.633514 90.333473 0.383166 15.217366 -43.316719 4.195485 -18.276514 -47.751617 -9.716334 4.105637 90.670258 -0.636570 -24.844872 -34.905605 -3.843179 24.009518 
0.052477 36.695644 7.662707 -0.927734 0.009766 -12.744139 10.370376 -8.712459 -6.345483 6.806644 10.742188 7.120960 -8.970754 -2.606719 -5.948321 -8.359375 -0.361328 -6.660219 2.000000 -2.000000 0.000000 -37.949223 -22.451174 -25.625000 -18.872347 -1.016911 2.558724 1.947388 -7.834171 8.796535 -2.000000 2.000000 0.000000 53.398438 -10.683594 -27.724609 51.080990 0.691770 2.920544 7.213886 9.177698 1.479442 -39.936691 9.354625 0.620711 85.521751 0.031592 14.204439 -41.226364 2.966113 -16.751509 -44.067837 -8.358648 2.690604 85.132881 -0.216939 -26.728743 -32.140068 -4.230136 24.102421 
0.302778 38.234325 7.729025 -0.849609 2.167969 -13.105469 10.370376 -8.712459 -6.345483 5.390625 8.193360 7.032641 -9.078053 -2.063476 -4.439425 -6.630859 0.058594 -5.175770 2.000000 -2.000000 0.000000 -38.828121 -19.101561 -27.649679 -20.376293 -0.977920 2.556369 5.292570 -10.783973 16.986290 -2.000000 2.000000 0.000000 52.460938 -8.935547 -27.687065 47.868954 0.694127 2.881562 4.634791 10.758300 6.094121 -37.204784 6.620625 1.651992 79.401016 -0.417343 14.379663 -38.451443 2.928930 -15.612535 -42.126846 -10.565768 3.361260 80.062683 0.153472 -24.940153 -30.583460 -4.175783 22.112844 
0.357772 39.837437 7.584811 0.634766 2.812500 -12.636718 10.370376 -8.712459 -6.345483 3.300782 7.939454 6.778693 -9.166613 -2.075506 -4.388236 -5.986329 -0.595703 -4.902353 2.000000 -2.000000 0.000000 -37.568359 -16.933594 -28.166906 -17.818102 -1.008339 2.538644 3.993501 -17.429556 21.024294 -2.000000 2.000000 0.000000 51.835934 -8.056640 -28.671871 46.053185 0.705642 2.852914 3.944490 10.713156 7.839621 -35.917812 6.601873 2.738405 73.092728 -0.897361 12.943973 -35.396408 2.600885 -13.618770 -40.700935 -10.722121 2.847518 74.037399 0.612731 -25.335835 -27.852179 -3.942077 20.542765 
0.274087 41.235680 7.480613 2.763672 2.226563 -10.507433 10.370376 -8.712459 -6.345483 0.605470 9.335938 6.280881 -9.283098 -2.012282 -4.427388 -4.316407 -0.429688 -4.941413 2.000000 -2.000000 0.000000 -35.400391 -16.992188 -30.234375 -13.385529 -1.079514 2.494038 4.376503 -16.315002 20.521307 -2.000000 2.000000 0.000000 49.443359 -9.218750 -29.952736 45.233078 0.715979 2.843757 5.245710 9.201871 8.502853 -35.485710 7.353261 2.542261 67.563728 -1.283730 10.147360 -33.000294 1.753289 -11.201715 -39.101849 -10.066393 2.127248 68.016235 1.054728 -27.821127 -24.913931 -2.946696 20.460945 
